<?xml version="1.0" encoding="UTF-8"?>
<svg id="Layer_1" xmlns="http://www.w3.org/2000/svg" version="1.1" viewBox="0 0 1366 768">
  <!-- Generator: Adobe Illustrator 30.0.0, SVG Export Plug-In . SVG Version: 2.1.1 Build 123)  -->
  <g>
    <polygon points="99.4 84.46 31.26 89.31 76.56 48.81 99.4 84.46" fill="#04ffff"/>
    <path d="M29.83,89.91l46.83-41.87,23.61,36.86-70.44,5.01ZM76.46,49.57l-43.77,39.13,65.85-4.68-22.07-34.45Z"/>
  </g>
  <g>
    <polygon points="99.4 84.46 38.33 118 31.26 89.31 99.4 84.46" fill="#05ffff"/>
    <path d="M38,118.75l-7.37-29.9,71.01-5.05-63.65,34.95ZM31.89,89.76l6.77,27.48,58.5-32.12-65.28,4.64Z"/>
  </g>
  <g>
    <polygon points="203.65 128.56 179.73 109.56 228.82 62.14 203.65 128.56" fill="#1affff"/>
    <path d="M203.87,129.38l-24.9-19.79,51.11-49.36-26.21,69.15ZM180.48,109.52l22.94,18.23,24.14-63.69-47.08,45.46Z"/>
  </g>
  <g>
    <polygon points="76.56 48.81 31.26 89.31 36.61 41.94 62.88 18.76 76.56 48.81" fill="#03ffff"/>
    <path d="M30.62,90.55l5.52-48.86,26.92-23.75,14.11,30.99-46.55,41.62ZM37.08,42.19l-5.18,45.87,44.05-39.38-13.25-29.1-25.62,22.6Z"/>
  </g>
  <g>
    <polygon points="31.26 89.31 1.06 50.29 36.61 41.94 31.26 89.31" fill="#02ffff"/>
    <path d="M31.62,90.59L.19,49.98l37-8.69-5.56,49.3ZM1.93,50.6l28.97,37.43,5.13-45.44L1.93,50.6Z"/>
  </g>
  <g>
    <polygon points="36.61 41.94 1.06 50.29 31.26 1.46 36.61 41.94" fill="aqua"/>
    <path d="M0,51.05L31.57,0l5.59,42.32L0,51.05ZM30.95,2.91L2.12,49.53l33.93-7.97L30.95,2.91Z"/>
  </g>
  <g>
    <polygon points="62.88 18.76 36.61 41.94 31.26 1.46 62.88 18.76" fill="#01ffff"/>
    <path d="M36.23,42.94L30.63.54l33.11,18.12-27.51,24.27ZM31.88,2.37l5.1,38.58,25.03-22.08L31.88,2.37Z"/>
  </g>
  <g>
    <polygon points="76.56 48.81 62.88 18.76 110.48 45.37 76.56 48.81" fill="#08ffff"/>
    <path d="M76.26,49.34l-14.46-31.76,50.32,28.13-35.85,3.63ZM63.97,19.94l12.9,28.33,31.98-3.24-44.88-25.09Z"/>
  </g>
  <g>
    <polygon points="99.4 84.46 76.56 48.81 110.48 45.37 99.4 84.46" fill="#07ffff"/>
    <path d="M99.58,85.67l-23.88-37.27,35.46-3.59-11.58,40.86ZM77.42,49.22l21.8,34.03,10.57-37.31-32.38,3.28Z"/>
  </g>
  <g>
    <polygon points="76.56 123.04 38.33 118 99.4 84.46 76.56 123.04" fill="#06ffff"/>
    <path d="M76.82,123.57l-40.07-5.28,64.02-35.15-23.94,40.43ZM39.91,117.7l36.39,4.79,21.74-36.72-58.14,31.92Z"/>
  </g>
  <g>
    <polygon points="76.56 123.04 99.4 84.46 117.61 103.73 76.56 123.04" fill="#0affff"/>
    <path d="M75.3,124.18l24.01-40.54,19.14,20.25-43.15,20.29ZM99.5,85.29l-21.68,36.6,38.96-18.32-17.28-18.28Z"/>
  </g>
  <g>
    <polygon points="64.74 139.13 41.65 136.46 38.33 118 76.56 123.04 64.74 139.13" fill="#0cffff"/>
    <path d="M64.97,139.66l-23.74-2.74-3.51-19.5,39.75,5.24-12.5,17.01ZM42.08,136.01l22.43,2.59,11.15-15.18-36.72-4.84,3.14,17.43Z"/>
  </g>
  <g>
    <polygon points="126.01 78.55 117.61 103.73 99.4 84.46 110.48 45.37 126.01 78.55" fill="#09ffff"/>
    <path d="M117.82,104.68l-18.98-20.08,11.52-40.65,16.18,34.57-8.72,26.16ZM99.96,84.33l17.44,18.45,8.07-24.2-14.87-31.78-10.63,37.52Z"/>
  </g>
  <g>
    <polygon points="80.93 166.23 26.31 195.64 26.31 157.66 80.93 166.23" fill="#0fffff"/>
    <path d="M25.81,196.48v-39.4l56.67,8.89-56.67,30.51ZM26.81,158.24v36.56l52.58-28.31-52.58-8.25Z"/>
  </g>
  <g>
    <polygon points="80.93 166.23 62.88 138.56 112.71 153.67 80.93 166.23" fill="#0effff"/>
    <path d="M80.73,166.84l-19.02-29.16,52.51,15.92-33.49,13.24ZM64.05,139.44l17.07,26.17,30.06-11.88-47.14-14.29Z"/>
  </g>
  <g>
    <polygon points="80.93 166.23 26.31 157.66 41.65 136.46 62.88 138.56 80.93 166.23" fill="#0dffff"/>
    <path d="M81.96,166.9l-56.54-8.87,15.99-22.09,21.75,2.15,18.79,28.81ZM27.19,157.29l52.71,8.27-17.3-26.52-20.7-2.05-14.7,20.3Z"/>
  </g>
  <g>
    <polygon points="103.34 178.85 68.87 199.35 26.31 195.64 80.93 166.23 103.34 178.85" fill="#1ff"/>
    <path d="M68.98,199.86l-44.39-3.87,56.34-30.33,23.41,13.18-35.36,21.02ZM28.02,195.29l40.73,3.55,33.6-19.98-21.42-12.06-52.91,28.49Z"/>
  </g>
  <g>
    <polygon points="103.34 178.85 80.93 166.23 112.71 153.67 103.34 178.85" fill="#10ffff"/>
    <path d="M103.61,179.57l-23.84-13.42,33.8-13.36-9.96,26.78ZM82.09,166.31l20.99,11.82,8.77-23.58-29.76,11.76Z"/>
  </g>
  <g>
    <polygon points="106.28 195.64 57.45 213.68 68.87 199.35 103.34 178.85 106.28 195.64" fill="#13ffff"/>
    <path d="M55.94,214.77l12.67-15.85,35.1-20.87,3.13,17.91-50.91,18.81ZM69.2,199.74l-10.25,12.86,46.76-17.28-2.74-15.66-33.78,20.08Z"/>
  </g>
  <g>
    <polygon points="57.45 213.68 26.31 195.64 68.87 199.35 57.45 213.68" fill="#12ffff"/>
    <path d="M57.57,214.33l-33.46-19.39,45.73,3.99-12.27,15.4ZM28.5,196.33l28.82,16.7,10.57-13.27-39.4-3.44Z"/>
  </g>
  <g>
    <polygon points="179.73 109.56 117.61 103.73 126.01 78.55 179.73 109.56" fill="#14ffff"/>
    <path d="M181.96,110.27l-65.02-6.1,8.79-26.36,56.23,32.46ZM118.29,103.29l59.21,5.55-51.2-29.56-8,24Z"/>
  </g>
  <g>
    <polygon points="179.73 109.56 126.01 78.55 182.53 94.05 179.73 109.56" fill="#15ffff"/>
    <path d="M180.09,110.34l-57.7-33.31,60.71,16.65-3.01,16.65ZM129.62,80.06l49.74,28.71,2.6-14.35-52.33-14.35Z"/>
  </g>
  <g>
    <polygon points="228.82 62.14 179.73 109.56 182.53 94.05 206.16 38.68 228.82 62.14" fill="#18ffff"/>
    <path d="M178.96,110.99l3.11-17.14,23.93-56.07,23.53,24.37-50.57,48.84ZM183.01,94.2l-2.52,13.92,47.62-45.99-21.79-22.56-23.32,54.63Z"/>
  </g>
  <g>
    <polygon points="267.7 41.94 228.24 62.14 205.58 38.68 262.24 18.76 267.7 41.94" fill="#17ffff"/>
    <path d="M228.14,62.76l-23.46-24.29,57.92-20.36,5.67,24.1-40.13,20.55ZM206.49,38.89l21.86,22.64,38.78-19.86-5.24-22.25-55.4,19.47Z"/>
  </g>
  <g>
    <polygon points="228.82 62.14 268.28 41.94 271.63 98.27 228.82 62.14" fill="#19ffff"/>
    <path d="M272.2,99.41l-44.28-37.37,40.8-20.9,3.47,58.26ZM229.72,62.25l41.35,34.89-3.24-54.41-38.1,19.51Z"/>
  </g>
  <g>
    <polygon points="203.65 128.56 228.82 62.14 271.63 98.27 203.65 128.56" fill="#1bffff"/>
    <path d="M202.75,129.51l25.85-68.2,43.96,37.1-69.81,31.1ZM229.04,62.98l-24.5,64.64,66.16-29.48-41.66-35.16Z"/>
  </g>
  <path d="M308.48,45.31" fill="#fff" stroke="#000" stroke-miterlimit="10"/>
  <path d="M275.75,48.57" fill="#fff" stroke="#000" stroke-miterlimit="10"/>
  <g>
    <polygon points="195.81 168.74 179.73 109.56 203.65 128.56 195.81 168.74" fill="#1dffff"/>
    <path d="M195.89,170.94l-17.04-62.73,25.35,20.14-8.31,42.58ZM180.61,110.9l15.12,55.65,7.37-37.78-22.49-17.87Z"/>
  </g>
  <g>
    <polygon points="203.65 128.56 271.63 98.27 252.75 132.69 203.65 128.56" fill="#1cffff"/>
    <path d="M253.03,133.21l-51.36-4.31,71.12-31.69-19.76,36ZM205.63,128.23l46.84,3.93,18.02-32.83-64.85,28.89Z"/>
  </g>
  <g>
    <polygon points="195.81 168.74 203.65 128.56 236.64 168.74 195.81 168.74" fill="#1fffff"/>
    <path d="M237.7,169.24h-42.5l8.16-41.82,34.34,41.82ZM196.41,168.24h39.17l-31.65-38.54-7.52,38.54Z"/>
  </g>
  <g>
    <polygon points="203.65 128.56 252.75 132.69 236.64 168.74 203.65 128.56" fill="#1effff"/>
    <path d="M236.77,169.69l-34.26-41.72,50.98,4.28-16.73,37.44ZM204.78,129.16l31.73,38.64,15.49-34.67-47.22-3.97Z"/>
  </g>
  <g>
    <polygon points="159.16 209.49 195.81 168.74 236.64 168.74 159.16 209.49" fill="#20ffff"/>
    <path d="M156.92,211.23l38.66-42.99h43.08l-81.74,42.99ZM196.03,169.24l-34.63,38.5,73.21-38.5h-38.59Z"/>
  </g>
</svg>