<?xml version="1.0" encoding="UTF-8"?>
<svg id="Layer_1" xmlns="http://www.w3.org/2000/svg" version="1.1" viewBox="0 0 1366 768">
  <!-- Generator: Adobe Illustrator 29.8.2, SVG Export Plug-In . SVG Version: 2.1.1 Build 3)  -->
  <g>
    <polygon points="130.8 42.2 185.39 113.19 66.26 172.39 130.8 42.2" fill="#fff"/>
    <path d="M130.89,43.14l53.73,69.87-117.25,58.27,63.52-128.14M130.71,41.26l-65.56,132.23,121-60.13-55.45-72.1h0Z"/>
  </g>
  <g>
    <polygon points="65.92 173.67 185.48 114.26 152.84 284.94 65.92 173.67" fill="#fff"/>
    <path d="M184.8,115.16l-32.24,168.61-85.86-109.92,118.1-58.69M186.16,113.37l-121,60.13,87.97,112.62,33.04-172.75h0Z"/>
  </g>
  <g>
    <polygon points="131.68 41.7 288.83 31.78 186.24 112.66 131.68 41.7" fill="#fff"/>
    <path d="M287.26,32.38l-100.93,79.58-53.69-69.81,154.61-9.77M290.4,31.18l-159.69,10.09,55.45,72.1,104.24-82.19h0Z"/>
  </g>
  <g>
    <polygon points="186.61 113.64 289.88 32.22 288.22 164.87 153.89 284.76 186.61 113.64" fill="#fff"/>
    <path d="M289.37,33.26l-1.65,131.38-133.06,118.77,32.41-169.49,102.3-80.66M290.4,31.18l-104.24,82.19-33.04,172.75,135.6-121.03,1.68-133.91h0Z"/>
  </g>
</svg>